<svg width="314" height="300" viewBox="0 0 314 300" fill="none" xmlns="http://www.w3.org/2000/svg">
<path d="M291.751 79.7033V62.8592H289.134V79.7033C288.383 80.0072 287.761 80.563 287.375 81.2753C286.989 81.9876 286.862 82.8122 287.017 83.6077C287.171 84.4032 287.598 85.1201 288.223 85.6355C288.848 86.151 289.632 86.4328 290.442 86.4328C291.252 86.4328 292.037 86.151 292.662 85.6355C293.287 85.1201 293.713 84.4032 293.868 83.6077C294.023 82.8122 293.896 81.9876 293.51 81.2753C293.124 80.563 292.502 80.0072 291.751 79.7033Z" fill="#E6E6E6"/>
<path d="M297.859 249.691H279.972V32.3027H272.992V249.691H255.106C252.986 249.691 250.887 250.109 248.929 250.92C246.971 251.732 245.191 252.922 243.693 254.421C242.194 255.921 241.005 257.702 240.194 259.661C239.382 261.621 238.965 263.721 238.965 265.842V265.842H314V265.842C314 263.721 313.582 261.621 312.771 259.661C311.96 257.702 310.771 255.921 309.272 254.421C307.773 252.922 305.994 251.732 304.036 250.92C302.077 250.109 299.978 249.691 297.859 249.691V249.691Z" fill="#111111"/>
<path d="M239.001 64.6053H313.964L309.38 7.27232C309.212 5.29536 308.311 3.45271 306.854 2.10688C305.397 0.761048 303.49 0.00946819 301.507 0H251.458C249.475 0.00946928 247.567 0.761048 246.11 2.10688C244.653 3.45271 243.753 5.29536 243.585 7.27232L239.001 64.6053Z" fill="#C0101B"/>
<path d="M26.6539 199.724H255.458V176.35C255.458 113.23 204.137 61.877 141.056 61.877C77.9747 61.877 26.6539 113.23 26.6539 176.35V199.724Z" fill="#3F3D56"/>
<path opacity="0.5" d="M26.6539 199.724H255.458V176.35C255.458 113.23 204.137 61.877 141.056 61.877C77.9747 61.877 26.6539 113.23 26.6539 176.35V199.724Z" fill="#C0101B"/>
<path d="M56.3079 207.816H232.393C232.225 198.546 228.43 189.712 221.823 183.212C215.216 176.711 206.325 173.064 197.059 173.054H91.6415C82.3759 173.064 73.4842 176.711 66.8772 183.212C60.2701 189.712 56.4752 198.546 56.3079 207.816V207.816Z" fill="#3A0001"/>
<path d="M35.3389 204.22C54.856 204.22 70.6777 188.388 70.6777 168.859C70.6777 149.329 54.856 133.498 35.3389 133.498C15.8218 133.498 0 149.329 0 168.859C0 188.388 15.8218 204.22 35.3389 204.22Z" fill="#A74E53"/>
<path d="M249.768 204.22C269.285 204.22 285.107 188.388 285.107 168.859C285.107 149.329 269.285 133.498 249.768 133.498C230.251 133.498 214.429 149.329 214.429 168.859C214.429 188.388 230.251 204.22 249.768 204.22Z" fill="#A74E53"/>
<path d="M223.114 186.839V200.024H59.8964V186.839H23.3596V251.105C23.3596 255.042 24.9228 258.818 27.7054 261.603C30.4879 264.387 34.2618 265.951 38.1969 265.951H244.814C246.762 265.951 248.691 265.567 250.492 264.821C252.292 264.075 253.927 262.981 255.305 261.603C256.683 260.224 257.776 258.587 258.521 256.786C259.267 254.985 259.651 253.054 259.651 251.105V186.839H223.114Z" fill="#A74E53"/>
<path opacity="0.2" d="M35.3388 176.051C39.3084 176.051 42.5264 172.831 42.5264 168.859C42.5264 164.887 39.3084 161.667 35.3388 161.667C31.3692 161.667 28.1512 164.887 28.1512 168.859C28.1512 172.831 31.3692 176.051 35.3388 176.051Z" fill="black"/>
<path opacity="0.2" d="M249.768 176.051C253.738 176.051 256.956 172.831 256.956 168.859C256.956 164.887 253.738 161.667 249.768 161.667C245.798 161.667 242.58 164.887 242.58 168.859C242.58 172.831 245.798 176.051 249.768 176.051Z" fill="black"/>
<path d="M154.074 57.8377C154.074 57.8377 154.781 71.2715 159.727 74.0997C164.673 76.9279 159.727 96.018 159.727 96.018L136.409 96.7251L134.996 74.0997C134.996 74.0997 137.822 64.9081 136.409 60.6659C134.996 56.4236 154.074 57.8377 154.074 57.8377Z" fill="#FFB8B8"/>
<path d="M180.218 244.497L171.739 254.396L185.165 267.122L192.231 252.982L180.218 244.497Z" fill="#FFB8B8"/>
<path d="M120.157 244.497L128.636 254.396L115.211 267.122L108.145 252.982L120.157 244.497Z" fill="#FFB8B8"/>
<path d="M175.625 150.814C175.625 150.814 226.501 167.783 223.675 184.045C220.848 200.307 198.943 257.577 198.943 257.577C198.943 257.577 186.931 257.577 177.745 244.851L184.105 230.71C184.105 230.71 181.278 222.932 186.225 221.518C191.171 220.104 193.997 195.358 193.997 195.358C193.997 195.358 157.96 192.529 150.188 179.096L136.056 145.158L175.625 150.814Z" fill="black"/>
<path d="M124.75 150.814C124.75 150.814 73.8747 167.783 76.7011 184.045C79.5275 200.307 101.432 257.577 101.432 257.577C101.432 257.577 113.444 257.577 122.63 244.851L116.271 230.71C116.271 230.71 119.097 222.932 114.151 221.518C109.205 220.104 106.378 195.358 106.378 195.358C106.378 195.358 142.415 192.529 150.188 179.096L164.32 145.158L124.75 150.814Z" fill="black"/>
<path d="M182.692 261.82C182.692 261.82 189.758 255.456 190.464 260.406C191.171 265.355 189.758 285.152 189.758 285.152C189.758 285.152 196.824 300 186.225 300C175.626 300 170.679 288.687 172.092 277.375C173.506 266.062 167.146 261.82 167.146 261.82C167.146 261.82 159.374 246.265 167.146 244.851C174.919 243.437 177.745 246.972 177.745 246.972C177.745 246.972 174.919 259.699 182.692 261.82Z" fill="#660000"/>
<path d="M117.684 261.82C117.684 261.82 110.618 255.456 109.911 260.406C109.205 265.355 110.618 285.152 110.618 285.152C110.618 285.152 103.552 300 114.151 300C124.75 300 129.696 288.687 128.283 277.375C126.87 266.062 133.229 261.82 133.229 261.82C133.229 261.82 141.002 246.265 133.229 244.851C125.457 243.437 122.63 246.972 122.63 246.972C122.63 246.972 125.457 259.699 117.684 261.82Z" fill="#660000"/>
<path d="M143.122 65.9687C152.097 65.9687 159.374 58.6879 159.374 49.7067C159.374 40.7254 152.097 33.4447 143.122 33.4447C134.146 33.4447 126.87 40.7254 126.87 49.7067C126.87 58.6879 134.146 65.9687 143.122 65.9687Z" fill="#FFB8B8"/>
<path d="M145.595 77.6349L135.702 69.8574L111.678 81.1701L110.971 145.511C110.971 145.511 96.1327 152.581 100.372 161.773C100.372 161.773 113.091 164.601 118.744 170.258C124.397 175.914 156.194 168.136 169.619 163.894C183.045 159.652 186.578 154.703 186.578 154.703L173.152 135.612L180.925 86.8265L156.903 70.6659L145.595 77.6349Z" fill="#DFDFDF"/>
<path d="M162.88 38.6384C162.526 38.1576 162.202 37.6551 161.911 37.1337C161.407 35.9057 162.203 34.4584 161.459 33.3117C160.7 32.141 158.773 31.8941 157.461 31.0989C155.441 29.8737 155.074 27.4697 153.181 26.1197C151.817 25.1469 149.872 24.8847 148.05 24.9402C146.228 24.9957 144.429 25.3254 142.606 25.3616C140.145 25.4165 137.704 24.9169 135.462 23.8996L136.807 26.5322C135.312 26.2062 133.884 25.6271 132.585 24.8198C131.99 25.5581 133.078 26.6788 132.403 27.3713C132.127 27.5947 131.8 27.7465 131.45 27.8134C128.856 28.551 126.413 29.7435 124.236 31.3354C123.732 31.6562 123.315 32.0968 123.022 32.6178C122.671 33.3952 122.982 34.2538 122.955 35.0804C122.907 36.5824 121.761 37.8921 120.948 39.2451C120.135 40.5981 119.696 42.3522 120.902 43.5006C121.195 43.7339 121.477 43.982 121.745 44.2441C122.953 45.6704 120.814 47.759 121.845 49.2725C122.293 49.9296 123.21 50.2621 124.008 50.6503C125.535 51.3649 126.82 52.511 127.704 53.9473L127.085 49.3951C127.052 49.2826 127.046 49.1641 127.068 49.0489C127.089 48.9338 127.137 48.8253 127.208 48.732C127.508 48.4259 128.137 48.5479 128.551 48.3452C129.007 48.1221 129.042 47.6103 129.024 47.1817L128.884 43.8767C128.821 42.3905 128.804 42.1932 129.898 40.9936C130.662 40.1555 131.864 39.6498 133.072 39.2779C135.831 38.4281 138.799 38.1342 141.732 37.8469C145.139 37.5133 148.975 35.8593 151.621 37.6155C153.786 39.053 154.507 41.4159 155.55 43.5116C156.488 45.3952 158.895 50.9412 160.899 47.9391C162.158 46.0537 164.083 40.7376 162.88 38.6384Z" fill="white"/>
<path d="M145.912 44.9893C145.845 44.9894 145.781 45.016 145.733 45.0633C145.686 45.1107 145.659 45.1749 145.659 45.2419V52.0504C145.659 52.1174 145.686 52.1816 145.733 52.2289C145.781 52.2763 145.845 52.3029 145.912 52.303H157.625C157.692 52.3029 157.756 52.2763 157.803 52.2289C157.851 52.1816 157.878 52.1174 157.878 52.0504V45.2419C157.878 45.1749 157.851 45.1107 157.803 45.0633C157.756 45.016 157.692 44.9894 157.625 44.9893L145.912 44.9893Z" fill="#3F3D56"/>
<path d="M147.221 45.5897C147.096 45.5899 146.976 45.6395 146.888 45.7278C146.8 45.8161 146.75 45.9357 146.75 46.0606V51.2317C146.75 51.3565 146.8 51.4762 146.888 51.5645C146.976 51.6527 147.096 51.7024 147.221 51.7025H156.316C156.441 51.7024 156.56 51.6527 156.649 51.5645C156.737 51.4762 156.786 51.3565 156.787 51.2317V46.0606C156.786 45.9357 156.737 45.8161 156.649 45.7278C156.56 45.6395 156.441 45.5899 156.316 45.5897H147.221Z" fill="#C0101B"/>
<path d="M146.043 47.232H139.942V48.6461H146.043V47.232Z" fill="#3F3D56"/>
<path d="M129.325 44.9893C129.258 44.9894 129.194 45.0161 129.147 45.0634C129.099 45.1107 129.073 45.1749 129.073 45.2419V52.0504C129.073 52.1174 129.099 52.1815 129.147 52.2289C129.194 52.2762 129.258 52.3029 129.325 52.303H141.039C141.105 52.3029 141.17 52.2762 141.217 52.2289C141.264 52.1815 141.291 52.1174 141.291 52.0504V45.2419C141.291 45.1749 141.264 45.1107 141.217 45.0634C141.17 45.0161 141.105 44.9894 141.039 44.9893L129.325 44.9893Z" fill="#3F3D56"/>
<path d="M130.634 45.5897C130.51 45.5898 130.39 45.6395 130.302 45.7277C130.213 45.816 130.164 45.9357 130.164 46.0606V51.2317C130.164 51.3566 130.213 51.4763 130.302 51.5645C130.39 51.6528 130.51 51.7024 130.634 51.7025H139.729C139.854 51.7024 139.974 51.6528 140.062 51.5645C140.15 51.4763 140.2 51.3566 140.2 51.2317V46.0606C140.2 45.9357 140.15 45.816 140.062 45.7277C139.974 45.6395 139.854 45.5898 139.729 45.5897H130.634Z" fill="#6C63FF"/>
<path d="M122.922 129.975H163.493C165.113 129.975 166.667 130.618 167.812 131.764C168.957 132.911 169.601 134.465 169.601 136.086V136.086H116.815C116.815 134.465 117.458 132.911 118.603 131.764C119.749 130.618 121.302 129.975 122.922 129.975V129.975Z" fill="#3F3D56"/>
<path d="M166.329 129.538C166.092 129.539 165.856 129.579 165.631 129.657C165.555 129.347 165.367 129.076 165.104 128.895C164.841 128.714 164.521 128.636 164.204 128.675C163.887 128.714 163.595 128.868 163.384 129.107C163.173 129.347 163.057 129.655 163.057 129.975C163.057 129.981 163.059 129.987 163.059 129.994C162.895 130.009 162.734 130.043 162.578 130.093C162.533 129.917 162.453 129.752 162.342 129.608C162.23 129.465 162.09 129.346 161.931 129.259C162.35 129.027 162.682 128.664 162.875 128.225C163.12 128.25 163.368 128.222 163.602 128.144C163.836 128.066 164.05 127.94 164.232 127.774C164.414 127.607 164.559 127.404 164.657 127.178C164.755 126.952 164.805 126.707 164.802 126.461C164.8 126.214 164.745 125.971 164.642 125.747C164.54 125.523 164.391 125.323 164.206 125.16C164.02 124.997 163.803 124.875 163.567 124.802C163.332 124.729 163.084 124.707 162.839 124.736C162.602 124.737 162.366 124.777 162.142 124.855C162.101 124.683 162.027 124.522 161.922 124.38C161.818 124.238 161.685 124.118 161.534 124.029C161.382 123.939 161.213 123.882 161.039 123.859C160.864 123.837 160.686 123.85 160.517 123.898C160.347 123.946 160.189 124.027 160.052 124.138C159.915 124.249 159.802 124.386 159.719 124.542C159.637 124.698 159.586 124.869 159.572 125.045C159.557 125.22 159.578 125.397 159.633 125.565C159.581 125.601 159.533 125.642 159.484 125.682C159.237 125.47 158.917 125.363 158.592 125.385C158.424 124.903 158.092 124.495 157.654 124.234C157.216 123.972 156.7 123.873 156.196 123.953C155.693 124.034 155.233 124.29 154.899 124.675C154.565 125.061 154.376 125.552 154.368 126.062C154.193 126.076 154.02 126.11 153.853 126.165C153.834 126.091 153.809 126.019 153.777 125.949C153.95 125.797 154.088 125.611 154.184 125.402C154.279 125.193 154.33 124.966 154.332 124.736C154.302 124.245 154.078 123.786 153.71 123.458C153.343 123.131 152.86 122.963 152.369 122.99C152.132 122.991 151.896 123.031 151.671 123.109C151.631 122.937 151.557 122.776 151.452 122.634C151.348 122.492 151.215 122.372 151.064 122.283C150.912 122.193 150.743 122.136 150.569 122.113C150.394 122.09 150.216 122.104 150.047 122.151C149.877 122.199 149.719 122.281 149.582 122.392C149.445 122.503 149.332 122.64 149.249 122.796C149.167 122.952 149.116 123.123 149.102 123.298C149.087 123.474 149.108 123.651 149.163 123.818C148.889 124.009 148.662 124.261 148.5 124.554C148.338 124.847 148.246 125.173 148.231 125.507C148.213 125.524 148.191 125.537 148.174 125.555C148.207 125.43 148.224 125.302 148.225 125.173C148.194 124.681 147.971 124.222 147.603 123.895C147.235 123.568 146.753 123.4 146.262 123.427C146.024 123.428 145.788 123.468 145.564 123.546C145.524 123.374 145.449 123.212 145.345 123.07C145.24 122.928 145.108 122.809 144.956 122.719C144.804 122.63 144.636 122.572 144.461 122.55C144.286 122.527 144.109 122.54 143.939 122.588C143.77 122.636 143.612 122.718 143.474 122.829C143.337 122.939 143.224 123.077 143.142 123.233C143.059 123.388 143.009 123.559 142.994 123.735C142.979 123.911 143 124.088 143.056 124.255C142.766 124.455 142.53 124.723 142.366 125.035C142.203 125.347 142.117 125.694 142.117 126.046C142.117 126.398 142.203 126.745 142.366 127.057C142.53 127.369 142.766 127.637 143.056 127.837C142.968 128.09 142.968 128.367 143.056 128.62C142.837 128.773 142.648 128.964 142.498 129.184C142.417 128.891 142.236 128.635 141.987 128.462C141.737 128.288 141.435 128.207 141.132 128.233C140.829 128.259 140.545 128.391 140.329 128.605C140.113 128.819 139.979 129.102 139.949 129.404C139.774 129.302 139.586 129.226 139.389 129.178C139.742 128.944 140.02 128.614 140.19 128.225C140.435 128.25 140.683 128.222 140.917 128.144C141.15 128.066 141.365 127.94 141.547 127.774C141.729 127.607 141.874 127.404 141.972 127.178C142.07 126.952 142.12 126.707 142.117 126.461C142.115 126.214 142.06 125.971 141.957 125.747C141.855 125.523 141.706 125.323 141.52 125.16C141.335 124.997 141.118 124.875 140.882 124.802C140.647 124.729 140.399 124.707 140.154 124.736C139.917 124.737 139.681 124.777 139.456 124.855C139.416 124.683 139.341 124.522 139.237 124.38C139.133 124.238 139 124.118 138.849 124.029C138.697 123.939 138.528 123.882 138.354 123.859C138.179 123.837 138.001 123.85 137.832 123.898C137.662 123.946 137.504 124.027 137.367 124.138C137.23 124.249 137.117 124.386 137.034 124.542C136.951 124.698 136.901 124.869 136.887 125.045C136.872 125.22 136.893 125.397 136.948 125.565C136.92 125.584 136.895 125.607 136.868 125.628C136.8 125.621 136.734 125.609 136.664 125.609C136.427 125.61 136.191 125.651 135.966 125.728C135.958 125.695 135.945 125.665 135.934 125.633C135.976 125.438 135.973 125.237 135.924 125.044C135.875 124.851 135.783 124.672 135.653 124.522C135.524 124.371 135.361 124.252 135.178 124.174C134.995 124.097 134.796 124.063 134.598 124.076C134.484 123.759 134.299 123.473 134.057 123.24C133.814 123.007 133.521 122.833 133.201 122.732C132.88 122.631 132.541 122.606 132.208 122.658C131.876 122.711 131.561 122.839 131.287 123.034C131.013 123.228 130.787 123.483 130.628 123.78C130.469 124.076 130.38 124.405 130.369 124.741C130.358 125.077 130.425 125.411 130.564 125.717C130.704 126.023 130.912 126.293 131.173 126.505C131.023 126.522 130.875 126.554 130.731 126.601C130.68 126.388 130.575 126.192 130.427 126.031C130.28 125.869 130.093 125.748 129.886 125.678C129.679 125.608 129.457 125.591 129.242 125.63C129.026 125.669 128.824 125.761 128.654 125.899C128.46 125.668 128.216 125.483 127.942 125.357C127.667 125.232 127.368 125.169 127.066 125.173C126.829 125.174 126.593 125.214 126.369 125.292C126.329 125.12 126.254 124.958 126.149 124.816C126.045 124.674 125.913 124.555 125.761 124.465C125.609 124.376 125.441 124.318 125.266 124.296C125.091 124.273 124.914 124.286 124.744 124.334C124.575 124.382 124.416 124.464 124.279 124.575C124.142 124.685 124.029 124.823 123.946 124.979C123.864 125.134 123.814 125.305 123.799 125.481C123.784 125.657 123.805 125.834 123.861 126.001C123.571 126.201 123.335 126.469 123.171 126.781C123.008 127.093 122.922 127.44 122.922 127.792C122.922 127.799 122.924 127.805 122.924 127.812C122.615 127.765 122.299 127.799 122.006 127.911C121.966 127.739 121.891 127.577 121.787 127.435C121.682 127.293 121.55 127.174 121.398 127.085C121.247 126.995 121.078 126.937 120.903 126.915C120.729 126.892 120.551 126.905 120.382 126.953C120.212 127.001 120.054 127.083 119.917 127.194C119.78 127.305 119.667 127.442 119.584 127.598C119.501 127.754 119.451 127.925 119.437 128.1C119.422 128.276 119.443 128.453 119.498 128.62C119.078 128.905 118.77 129.329 118.629 129.817C118.488 130.306 118.523 130.828 118.727 131.294C118.931 131.759 119.292 132.138 119.746 132.365C120.201 132.592 120.721 132.652 121.215 132.536C121.294 132.991 121.516 133.41 121.848 133.73C122.181 134.051 122.607 134.258 123.064 134.32C123.522 134.382 123.988 134.297 124.394 134.076C124.8 133.856 125.125 133.512 125.322 133.094C126.893 133.298 128.488 133.227 130.035 132.881C130.179 133.295 130.444 133.655 130.797 133.915C131.149 134.175 131.571 134.323 132.009 134.338C132.446 134.354 132.878 134.237 133.248 134.003C133.618 133.769 133.909 133.429 134.082 133.027C134.4 133.021 134.713 132.943 134.997 132.8C135.196 133.153 135.49 133.442 135.844 133.636C136.199 133.831 136.6 133.922 137.004 133.9C137.408 133.878 137.797 133.744 138.129 133.513C138.461 133.281 138.721 132.962 138.881 132.59C139.366 132.498 139.868 132.579 140.3 132.819C140.732 133.059 141.066 133.443 141.245 133.903C141.536 133.504 141.912 133.172 142.345 132.933C142.777 132.693 143.257 132.551 143.75 132.516C144.189 132.638 144.655 132.616 145.08 132.454C145.505 132.291 145.867 131.997 146.113 131.613C145.975 132.145 146.044 132.708 146.304 133.192C146.564 133.675 146.996 134.043 147.515 134.221C148.034 134.4 148.601 134.376 149.103 134.155C149.605 133.933 150.005 133.531 150.224 133.027C150.542 133.021 150.854 132.943 151.139 132.8C151.338 133.153 151.631 133.442 151.985 133.636C152.34 133.831 152.742 133.922 153.145 133.9C153.549 133.878 153.939 133.744 154.27 133.513C154.602 133.281 154.862 132.962 155.022 132.59C155.34 132.584 155.653 132.507 155.937 132.364C156.091 132.637 156.302 132.874 156.556 133.058C156.81 133.242 157.101 133.368 157.409 133.427C157.717 133.487 158.034 133.479 158.338 133.404C158.642 133.328 158.927 133.187 159.171 132.991C159.247 133.409 159.443 133.795 159.736 134.102C160.028 134.409 160.404 134.624 160.817 134.72C161.231 134.816 161.663 134.789 162.061 134.642C162.458 134.495 162.805 134.234 163.056 133.893C163.318 134.093 163.622 134.232 163.946 134.297C164.269 134.362 164.603 134.353 164.922 134.269C165.241 134.186 165.537 134.03 165.787 133.815C166.037 133.6 166.235 133.33 166.365 133.027C166.61 133.051 166.858 133.024 167.092 132.946C167.325 132.868 167.54 132.742 167.722 132.575C167.904 132.409 168.049 132.206 168.147 131.98C168.245 131.754 168.295 131.509 168.292 131.263C168.29 131.016 168.235 130.773 168.132 130.549C168.03 130.324 167.881 130.124 167.695 129.962C167.51 129.799 167.293 129.677 167.057 129.604C166.822 129.531 166.574 129.509 166.329 129.538L166.329 129.538ZM127.338 128.637C127.336 128.648 127.334 128.658 127.332 128.669C127.316 128.668 127.301 128.665 127.285 128.665C127.219 128.667 127.154 128.673 127.09 128.685C127.094 128.677 127.099 128.67 127.102 128.662C127.181 128.658 127.26 128.65 127.338 128.637V128.637ZM145.564 127.911C145.558 127.885 145.547 127.862 145.539 127.837C145.872 127.606 146.135 127.287 146.297 126.916C146.584 126.914 146.868 126.852 147.129 126.734C147.39 126.615 147.624 126.443 147.814 126.228C147.797 126.312 147.789 126.397 147.788 126.482C147.79 126.616 147.813 126.748 147.855 126.874C147.48 127.135 147.197 127.507 147.044 127.938C146.569 127.753 146.045 127.744 145.564 127.911V127.911ZM158.63 128.074C158.629 128.047 158.632 128.019 158.631 127.993C158.686 127.992 158.742 127.989 158.797 127.981C158.881 128.264 159.023 128.526 159.212 128.752C159.171 128.763 159.128 128.77 159.088 128.784C159.017 128.503 158.856 128.254 158.63 128.074V128.074Z" fill="#F9A825"/>
<path d="M121.209 132.157C120.59 132.157 119.978 132.283 119.409 132.528C118.841 132.772 118.328 133.13 117.903 133.58C117.477 134.029 117.147 134.561 116.934 135.142C116.72 135.723 116.627 136.342 116.66 136.96L119.614 177.607C119.677 178.772 120.183 179.868 121.029 180.671C121.876 181.474 122.997 181.921 124.163 181.921H162.252C163.418 181.921 164.54 181.474 165.386 180.671C166.232 179.868 166.739 178.772 166.801 177.607L169.755 136.96C169.788 136.342 169.695 135.723 169.482 135.142C169.268 134.561 168.939 134.029 168.513 133.58C168.087 133.13 167.575 132.772 167.006 132.528C166.438 132.283 165.825 132.157 165.206 132.157H121.209Z" fill="#C0101B"/>
<path d="M125.976 132.157H123.358V181.921H125.976V132.157Z" fill="white"/>
<path d="M133.392 132.157H130.775V181.921H133.392V132.157Z" fill="white"/>
<path d="M140.808 132.157H138.191V181.921H140.808V132.157Z" fill="white"/>
<path d="M148.225 132.157H145.607V181.921H148.225V132.157Z" fill="white"/>
<path d="M155.641 132.157H153.023V181.921H155.641V132.157Z" fill="white"/>
<path d="M163.057 132.157H160.44V181.921H163.057V132.157Z" fill="white"/>
<path d="M160.434 156.824L151.954 161.773C151.954 161.773 131.463 178.742 145.595 181.57C159.727 184.398 163.26 169.551 163.26 169.551L168.206 163.894L160.434 156.824Z" fill="#FFB8B8"/>
<path d="M120.157 153.289L128.636 158.238C128.636 158.238 149.128 175.207 134.996 178.035C120.864 180.863 117.331 166.015 117.331 166.015L112.385 160.359L120.157 153.289Z" fill="#FFB8B8"/>
<path d="M171.739 86.1194L180.925 86.8265C180.925 86.8265 187.991 93.1898 187.285 101.674C187.285 101.674 193.644 120.058 192.231 127.835C192.231 127.835 193.644 140.562 191.524 145.511C189.404 150.46 171.739 169.551 171.739 169.551C171.739 169.551 155.487 156.824 156.194 156.117L177.392 134.905L166.793 120.765L171.739 86.1194Z" fill="#DFDFDF"/>
<path d="M111.678 81.1701L111.325 81.5237C111.325 81.5237 95.426 88.2406 96.1326 96.7251C96.1326 96.7251 89.7732 115.108 91.1864 122.886C91.1864 122.886 89.7732 135.612 91.893 140.562C94.0128 145.511 111.678 164.601 111.678 164.601C111.678 164.601 127.93 151.874 127.223 151.167L106.025 129.956L116.624 115.815L111.678 81.1701Z" fill="#DFDFDF"/>
</svg>
